<svg xmlns="http://www.w3.org/2000/svg" version="1.1" xmlns:xlink="http://www.w3.org/1999/xlink" xmlns:svgjs="http://svgjs.dev/svgjs" width="1500" height="1500" viewBox="0 0 1500 1500"><rect width="1500" height="1500" fill="#000000"></rect><g transform="matrix(0.6666666666666666,0,0,0.6666666666666666,249.76470436223025,284.16881720430104)"><svg viewBox="0 0 267 248" data-background-color="#ffffff" preserveAspectRatio="xMidYMid meet" height="1393" width="1500" xmlns="http://www.w3.org/2000/svg" xmlns:xlink="http://www.w3.org/1999/xlink"><g id="tight-bounds" transform="matrix(1,0,0,1,0.0628239352845128,0.4000000000000057)"><svg viewBox="0 0 266.874352129431 247.2" height="247.2" width="266.874352129431"><g><svg viewBox="0 0 395.52 366.361709995202" height="247.2" width="266.874352129431"><g transform="matrix(1,0,0,1,0,261.32549204573115)"><svg viewBox="0 0 395.52 105.0362179494708" height="105.0362179494708" width="395.52"><g id="textblocktransform"><svg viewBox="0 0 395.52 105.0362179494708" height="105.0362179494708" width="395.52" id="textblock"><g><svg viewBox="0 0 395.52 67.98149818181818" height="67.98149818181818" width="395.52"><g transform="matrix(1,0,0,1,0,0)"><svg width="395.52" viewBox="2.15 -38.05 412.46000000000004 70.9" height="67.98149818181818" data-palette-color="#636365"><path d="M69.05 6.6Q69.45 6.9 69.45 7.5L69.45 7.5Q69.45 8.45 68.53 9.47 67.6 10.5 65.55 11.23 63.5 11.95 60.3 11.95L60.3 11.95Q49.45 11.95 39.1 3.8 28.75-4.35 18.2-17.5L18.2-17.5Q18.2-17.85 18.38-17.95 18.55-18.05 18.95-18.1L18.95-18.1Q25.15-18.6 29.08-20.75 33-22.9 33-26.65L33-26.65Q33-30.2 30.28-32.08 27.55-33.95 22.1-33.95L22.1-33.95Q20.85-33.95 20.2-33.75 19.55-33.55 19.3-32.9L19.3-32.9Q15-21.25 9.4-0.2L9.4-0.2Q8.3-0.3 7.53 0.23 6.75 0.75 6.15 1.65L6.15 1.65Q6.05 1.65 5.83 1.53 5.6 1.4 5.5 1.35L5.5 1.35Q12.9-18.95 16.2-32.35L16.2-32.35 16.3-33.1Q16.3-33.4 16.1-33.48 15.9-33.55 15.4-33.55L15.4-33.55Q12.8-33.55 10.33-32.3 7.85-31.05 6.3-29 4.75-26.95 4.75-24.65L4.75-24.65Q4.75-22.65 6.25-20.4L6.25-20.4Q5.15-20.4 4.25-20.85L4.25-20.85Q2.15-21.95 2.15-24.65L2.15-24.65Q2.15-27.9 4.83-30.43 7.5-32.95 11.95-34.3 16.4-35.65 21.65-35.65L21.65-35.65Q28.05-35.65 32.02-33.63 36-31.6 36-27.75L36-27.75Q36-25.35 34.38-23.08 32.75-20.8 29.7-19.07 26.65-17.35 22.5-16.55L22.5-16.55Q27.15-10.45 33.25-4.48 39.35 1.5 46.55 5.73 53.75 9.95 60.55 9.95L60.55 9.95Q63.65 9.95 65.6 9.05 67.55 8.15 69.05 6.6L69.05 6.6ZM60.55-11.95Q61.45-11.8 61.45-10.95L61.45-10.95Q61.45-8.95 58.87-6.28 56.3-3.6 52.8-1.68 49.3 0.25 46.95 0.25L46.95 0.25Q44.7 0.25 43.05-0.93 41.4-2.1 40.52-3.55 39.65-5 39.65-5.7L39.65-5.7Q40.45-8.55 41.4-13.6L41.4-13.6 41.95-16.4Q42.15-17.4 43.4-18.48 44.65-19.55 46.2-20.28 47.75-21 48.7-21L48.7-21Q49.45-21 50.52-20.53 51.6-20.05 52.42-19.05 53.25-18.05 53.25-16.5L53.25-16.5Q53.25-14.7 52.05-13.1 50.85-11.5 48.5-10.5 46.15-9.5 42.85-9.5L42.85-9.5 42.15-6.15Q42.15-5.7 42.67-4.65 43.2-3.6 44.37-2.75 45.55-1.9 47.35-1.9L47.35-1.9Q49.75-1.9 52.4-3.48 55.05-5.05 57.25-7.4 59.45-9.75 60.55-11.95L60.55-11.95ZM48.3-18.95Q47.7-18.95 46.75-18.45 45.8-17.95 45.02-17.2 44.25-16.45 44.1-15.8L44.1-15.8Q43.6-13.55 43.2-11.25L43.2-11.25Q47.05-11.4 49-12.78 50.95-14.15 50.95-15.9L50.95-15.9Q50.95-17.15 50.05-18.05 49.15-18.95 48.3-18.95L48.3-18.95ZM65.95 0.25Q63.35 0.25 61.7-0.98 60.05-2.2 59.3-3.68 58.55-5.15 58.55-5.7L58.55-5.7Q60.05-11.35 61.15-16.9L61.15-16.9Q61.35-17.9 62.42-18.78 63.5-19.65 64.92-20.2 66.35-20.75 67.45-20.75L67.45-20.75Q68.55-20.75 69.72-20.2 70.9-19.65 71.7-18.8 72.5-17.95 72.5-17L72.5-17Q72.5-15.6 71.15-14.55L71.15-14.55 70.9-14.6Q70.8-16.25 69.72-17.43 68.65-18.6 67.3-18.6L67.3-18.6Q66.15-18.6 64.8-17.82 63.45-17.05 63.25-16.05L63.25-16.05Q62.45-11.85 62-9.8L62-9.8 61.2-6.05Q61.2-5.4 61.77-4.42 62.35-3.45 63.5-2.73 64.65-2 66.35-2L66.35-2Q68.15-2 70.62-2.88 73.1-3.75 75.6-6.03 78.1-8.3 79.65-12.1L79.65-12.1Q80.15-12.1 80.3-11.75 80.45-11.4 80.45-10.8L80.45-10.8Q80.45-8.5 78.12-5.9 75.8-3.3 72.37-1.53 68.95 0.25 65.95 0.25L65.95 0.25ZM82.39 0.35Q80.64 0.35 79.27-0.83 77.89-2 77.89-4.3L77.89-4.3Q78.64-6.7 80.49-14.95L80.49-14.95Q81.39-19 81.59-19.8L81.59-19.8Q82.24-20.9 83.39-20.9L83.39-20.9Q84.14-20.9 84.14-20.4L84.14-20.4Q83.79-19.15 83.17-16.43 82.54-13.7 82.19-12.15L82.19-12.15Q80.84-5.95 80.34-4.2L80.34-4.2Q80.34-3.05 81.02-2.43 81.69-1.8 82.79-1.8L82.79-1.8Q85.29-1.8 87.82-3.58 90.34-5.35 92.27-7.7 94.19-10.05 95.14-11.75L95.14-11.75Q95.44-11.65 95.54-11.43 95.64-11.2 95.64-10.65L95.64-10.65Q95.64-9.9 95.14-9.1L95.14-9.1Q92.44-4.85 89.09-2.25 85.74 0.35 82.39 0.35L82.39 0.35ZM84.69-27.15Q83.99-27.15 83.59-27.63 83.19-28.1 83.19-28.85L83.19-28.85Q83.19-29.85 83.84-30.68 84.49-31.5 85.49-31.5L85.49-31.5Q86.29-31.5 86.67-31 87.04-30.5 87.04-29.8L87.04-29.8Q87.04-28.8 86.37-27.98 85.69-27.15 84.69-27.15L84.69-27.15ZM117.09-10.25Q117.84-9.8 117.84-8.75L117.84-8.75Q117.84-8.15 117.62-7.7 117.39-7.25 116.99-6.75L116.99-6.75Q114.54-3.8 110.59-2.23 106.64-0.65 103.22-0.18 99.79 0.3 97.64 0.3L97.64 0.3Q96.34 0.3 95.84 0.05 95.34-0.2 95.34-0.95L95.34-0.95Q95.34-1.35 95.49-1.8L95.49-1.8Q96.89-1.55 97.44-1.55L97.44-1.55Q99.94-1.55 101.59-3.43 103.24-5.3 104.17-7.93 105.09-10.55 106.04-14.4L106.04-14.4Q106.19-14.85 106.39-15.75L106.39-15.75Q106.39-16.4 105.37-17.35 104.34-18.3 103.64-18.3L103.64-18.3Q102.99-18.3 101.59-17.48 100.19-16.65 98.87-15.08 97.54-13.5 96.94-11.45L96.94-11.45Q95.49-6.35 94.47-1.95 93.44 2.45 92.19 8.35L92.19 8.35Q89.59 20.55 87.59 28.35L87.59 28.35Q87.24 29.7 86.69 30.38 86.14 31.05 85.39 31.33 84.64 31.6 82.94 31.95L82.94 31.95Q80.79 32.35 79.04 32.85L79.04 32.85 78.49 32.6Q81.29 31.35 82.59 30.2 83.89 29.05 84.54 27.38 85.19 25.7 86.19 21.7L86.19 21.7Q92.59-3.45 97.59-24.55L97.59-24.55Q97.69-25 97.89-25.18 98.09-25.35 98.39-25.45L98.39-25.45Q98.89-25.65 99.59-25.98 100.29-26.3 100.54-26.35L100.54-26.35Q100.69-26.3 100.99-25.9L100.99-25.9Q100.89-25.55 100.74-25.35L100.74-25.35Q100.34-24.45 98.74-18.9L98.74-18.9Q98.29-17.4 98.19-17.05L98.19-17.05Q99.54-18.6 101.42-19.8 103.29-21 104.39-21L104.39-21Q105.29-21 106.49-20.18 107.69-19.35 108.54-18.2 109.39-17.05 109.39-16.1L109.39-16.1 108.79-13.8Q108.04-10.75 107.37-8.7 106.69-6.65 105.39-4.75 104.09-2.85 102.09-1.7L102.09-1.7Q105.04-2.1 107.34-2.9 109.64-3.7 112.04-5.43 114.44-7.15 117.09-10.25L117.09-10.25ZM136.24-11.95Q137.14-11.8 137.14-10.95L137.14-10.95Q137.14-8.95 134.56-6.28 131.99-3.6 128.49-1.68 124.99 0.25 122.64 0.25L122.64 0.25Q120.39 0.25 118.74-0.93 117.09-2.1 116.21-3.55 115.34-5 115.34-5.7L115.34-5.7Q116.14-8.55 117.09-13.6L117.09-13.6 117.64-16.4Q117.84-17.4 119.09-18.48 120.34-19.55 121.89-20.28 123.44-21 124.39-21L124.39-21Q125.14-21 126.21-20.53 127.29-20.05 128.11-19.05 128.94-18.05 128.94-16.5L128.94-16.5Q128.94-14.7 127.74-13.1 126.54-11.5 124.19-10.5 121.84-9.5 118.54-9.5L118.54-9.5 117.84-6.15Q117.84-5.7 118.36-4.65 118.89-3.6 120.06-2.75 121.24-1.9 123.04-1.9L123.04-1.9Q125.44-1.9 128.09-3.48 130.74-5.05 132.94-7.4 135.14-9.75 136.24-11.95L136.24-11.95ZM123.99-18.95Q123.39-18.95 122.44-18.45 121.49-17.95 120.71-17.2 119.94-16.45 119.79-15.8L119.79-15.8Q119.29-13.55 118.89-11.25L118.89-11.25Q122.74-11.4 124.69-12.78 126.64-14.15 126.64-15.9L126.64-15.9Q126.64-17.15 125.74-18.05 124.84-18.95 123.99-18.95L123.99-18.95ZM202.58-9Q203.38-8.55 203.38-6.95L203.38-6.95Q203.38-5 202.41-3.03 201.43-1.05 199.66 0.25 197.88 1.55 195.53 1.55L195.53 1.55Q191.63 1.55 189.58-2.05 187.53-5.65 187.53-11.25L187.53-11.25Q187.53-14.6 188.23-18.45 188.93-22.3 189.93-25.65L189.93-25.65Q187.93-22.75 185.46-18.78 182.98-14.8 176.93-4.75L176.93-4.75Q175.83-2.9 175.83-2.1L175.83-2.1Q175.83-1.85 175.91-1.63 175.98-1.4 175.98-1.25L175.98-1.25Q175.98-1 175.58-0.9L175.58-0.9Q174.08-0.4 173.61-0.15 173.13 0.1 173.03 0.1L173.03 0.1Q172.73 0.1 172.48-0.4L172.48-0.4Q172.73-0.55 172.86-0.9 172.98-1.25 172.98-2.2L172.98-2.2Q172.98-4.65 172.03-11.58 171.08-18.5 170.08-24.5L170.08-24.5Q166.88-16.45 164.11-11.13 161.33-5.8 157.71-2.35 154.08 1.1 149.53 1.1L149.53 1.1Q146.88 1.1 144.98-0.05 143.08-1.2 142.11-3.18 141.13-5.15 141.13-7.5L141.13-7.5Q141.13-9.6 141.83-11.28 142.53-12.95 143.58-13.9 144.63-14.85 145.63-14.85L145.63-14.85Q146.13-14.85 146.43-14.6L146.43-14.6Q143.88-11.9 143.88-8.2L143.88-8.2Q143.88-5.15 145.46-3.45 147.03-1.75 149.98-1.75L149.98-1.75Q153.83-1.75 156.88-4.75 159.93-7.75 162.61-13.1 165.28-18.45 169.33-28.3L169.33-28.3Q169.28-28.65 169.23-29.05 169.18-29.45 169.08-29.85L169.08-29.85Q168.98-30.4 168.76-32.02 168.53-33.65 168.53-34.45L168.53-34.45Q168.53-35.4 169.03-35.83 169.53-36.25 170.23-36.25L170.23-36.25Q171.03-36.25 171.81-35.77 172.58-35.3 172.58-34.05L172.58-34.05Q172.58-33.75 172.28-31.45L172.28-31.45Q171.88-28.55 171.83-27.65L171.83-27.65Q172.23-25.15 173.53-16.15L173.53-16.15 174.98-6.15Q185.98-24.8 190.98-32.3L190.98-32.3Q193.13-35.5 194.31-36.77 195.48-38.05 196.43-38.05L196.43-38.05Q197.28-38.05 197.98-37.23 198.68-36.4 198.93-35.5L198.93-35.5Q197.58-35.5 196.28-34.33 194.98-33.15 193.88-31L193.88-31Q192.03-27.4 191.13-22.25 190.23-17.1 190.23-12.55L190.23-12.55Q190.23-7.1 191.63-4 193.03-0.9 195.93-0.9L195.93-0.9Q198.43-0.9 200.16-3.1 201.88-5.3 202.58-9L202.58-9ZM234.23-11.55Q234.88-11.55 234.88-10.25L234.88-10.25Q234.88-7.95 232.86-5.4 230.83-2.85 227.96-1.13 225.08 0.6 222.68 0.6L222.68 0.6Q220.73 0.6 219.68-0.6 218.63-1.8 218.43-3.7L218.43-3.7Q217.18-1.9 215.28-0.75 213.38 0.4 211.88 0.4L211.88 0.4Q210.58 0.4 209.31-0.48 208.03-1.35 207.23-2.63 206.43-3.9 206.38-5.05L206.38-5.05 208.83-15.15Q209.13-16.35 210.36-17.73 211.58-19.1 213.33-20 215.08-20.9 216.88-20.9L216.88-20.9Q219.18-20.9 220.93-19.35L220.93-19.35Q221.38-20.55 221.61-20.85 221.83-21.15 222.28-21.2L222.28-21.2 224.73-21.45 224.88-21.35Q223.88-20.55 223.43-18.85L223.43-18.85Q221.88-13.05 221.31-10.3 220.73-7.55 220.73-5.45L220.73-5.45Q220.73-3.35 221.28-2.38 221.83-1.4 223.13-1.4L223.13-1.4Q224.73-1.4 226.96-2.7 229.18-4 231.18-6.33 233.18-8.65 234.23-11.55L234.23-11.55ZM212.08-1.95Q212.93-1.95 214.16-2.55 215.38-3.15 216.46-4.28 217.53-5.4 217.93-6.85L217.93-6.85 218.88-10.95Q219.08-11.95 219.58-14.18 220.08-16.4 220.38-17.6L220.38-17.6Q218.98-19 216.98-19L216.98-19Q215.43-19 214.18-18.18 212.93-17.35 212.13-16.18 211.33-15 211.13-14.1L211.13-14.1 209.13-5.2Q209.23-3.95 210.13-2.95 211.03-1.95 212.08-1.95L212.08-1.95ZM256.23-12.2Q256.73-12.2 256.95-11.78 257.18-11.35 257.18-10.8L257.18-10.8Q257.18-9 255.28-6.25 253.38-3.5 250.45-1.45 247.53 0.6 244.68 0.6L244.68 0.6Q242.88 0.6 241.9-0.3 240.93-1.2 240.93-3.05L240.93-3.05Q240.93-5.6 242.33-9.98 243.73-14.35 244.88-17.25L244.88-17.25Q244.68-17.55 244.48-17.55L244.48-17.55Q244.28-17.55 244.03-17.4L244.03-17.4Q243.13-16.85 241.08-14.95 239.03-13.05 237.08-10.95 235.13-8.85 234.43-7.55L234.43-7.55Q233.63-5.4 233.43-4.83 233.23-4.25 233.03-2.95L233.03-2.95 232.58-0.7Q232.53-0.55 232.48-0.33 232.43-0.1 232.35-0.05 232.28 0 232.13 0L232.13 0Q231.68 0 230.95-0.1 230.23-0.2 230.23-0.4L230.23-0.4Q230.23-1 230.58-2.35 230.93-3.7 231.28-4.8 231.63-5.9 231.83-6.5L231.83-6.5 232.28-7.9Q233.73-12.9 234.25-15.18 234.78-17.45 235.28-20.25L235.28-20.25Q235.33-20.75 235.98-20.75L235.98-20.75Q236.43-20.75 237-20.53 237.58-20.3 237.68-19.9L237.68-19.9Q237.48-19 236.95-16.85 236.43-14.7 235.68-12.1L235.68-12.1Q238.58-15.35 241.7-18 244.83-20.65 245.88-20.65L245.88-20.65Q246.38-20.65 247.08-20.15 247.78-19.65 247.93-19.2L247.93-19.2Q246.33-14.9 244.88-9.83 243.43-4.75 243.43-3.15L243.43-3.15Q243.43-1.4 245.43-1.4L245.43-1.4Q248.38-1.4 251.4-4.7 254.43-8 256.23-12.2L256.23-12.2ZM282.48-11.55Q283.13-11.55 283.13-10.25L283.13-10.25Q283.13-7.95 281.1-5.4 279.08-2.85 276.2-1.13 273.33 0.6 270.93 0.6L270.93 0.6Q268.98 0.6 267.93-0.6 266.88-1.8 266.68-3.7L266.68-3.7Q265.43-1.9 263.53-0.75 261.63 0.4 260.13 0.4L260.13 0.4Q258.83 0.4 257.55-0.48 256.28-1.35 255.48-2.63 254.68-3.9 254.63-5.05L254.63-5.05 257.08-15.15Q257.38-16.35 258.6-17.73 259.83-19.1 261.58-20 263.33-20.9 265.13-20.9L265.13-20.9Q267.43-20.9 269.18-19.35L269.18-19.35Q269.63-20.55 269.85-20.85 270.08-21.15 270.53-21.2L270.53-21.2 272.98-21.45 273.13-21.35Q272.13-20.55 271.68-18.85L271.68-18.85Q270.13-13.05 269.55-10.3 268.98-7.55 268.98-5.45L268.98-5.45Q268.98-3.35 269.53-2.38 270.08-1.4 271.38-1.4L271.38-1.4Q272.98-1.4 275.2-2.7 277.43-4 279.43-6.33 281.43-8.65 282.48-11.55L282.48-11.55ZM260.33-1.95Q261.18-1.95 262.4-2.55 263.63-3.15 264.7-4.28 265.78-5.4 266.18-6.85L266.18-6.85 267.13-10.95Q267.33-11.95 267.83-14.18 268.33-16.4 268.63-17.6L268.63-17.6Q267.23-19 265.23-19L265.23-19Q263.68-19 262.43-18.18 261.18-17.35 260.38-16.18 259.58-15 259.38-14.1L259.38-14.1 257.38-5.2Q257.48-3.95 258.38-2.95 259.28-1.95 260.33-1.95L260.33-1.95ZM296.32-22.75Q296.92-22.15 297.52-21.75L297.52-21.75Q298.02-21.35 298.2-21.13 298.37-20.9 298.37-20.5L298.37-20.5Q298.37-20.1 298.17-19.5L298.17-19.5Q297.17-15.65 295.52-8.45L295.52-8.45Q294.42-3.55 293.52-0.05L293.52-0.05Q290.92 10.5 288.2 16.95 285.47 23.4 281.4 26.83 277.32 30.25 271.22 30.25L271.22 30.25Q267.22 30.25 264.47 28.88 261.72 27.5 260.42 25.4 259.12 23.3 259.12 21.1L259.12 21.1Q259.12 20.6 259.22 20.28 259.32 19.95 259.72 19.3L259.72 19.3Q262.67 27.35 271.32 27.35L271.32 27.35Q276.72 27.35 280.32 24.18 283.92 21 286.37 15.23 288.82 9.45 291.22 0L291.22 0 291.47-1Q291.57-1.4 291.67-1.75 291.77-2.1 291.82-2.45L291.82-2.45Q290.42-1.1 288.57-0.35 286.72 0.4 285.47 0.4L285.47 0.4Q284.17 0.4 282.95-0.45 281.72-1.3 280.97-2.58 280.22-3.85 280.22-5.05L280.22-5.05Q280.52-6.25 280.92-8.1 281.32-9.95 281.52-10.95L281.52-10.95 282.72-16.35Q282.97-17.4 284.32-18.6 285.67-19.8 287.4-20.6 289.12-21.4 290.37-21.4L290.37-21.4Q291.72-21.4 293.02-20.4 294.32-19.4 295.32-17.75L295.32-17.75Q295.62-19.15 295.87-21.05L295.87-21.05 296.12-22.7 296.32-22.75ZM292.82-6.85L294.72-15.1Q293.77-16.95 292.55-18.05 291.32-19.15 290.17-19.15L290.17-19.15Q289.37-19.15 288.22-18.63 287.07-18.1 286.12-17.23 285.17-16.35 284.92-15.3L284.92-15.3Q284.57-13.8 283.62-8.6L283.62-8.6 283.02-5.2Q283.02-4 283.9-2.95 284.77-1.9 285.92-1.9L285.92-1.9Q286.77-1.9 288.32-2.5 289.87-3.1 291.17-4.23 292.47-5.35 292.82-6.85L292.82-6.85ZM323.97-11.95Q324.87-11.8 324.87-10.95L324.87-10.95Q324.87-8.95 322.3-6.28 319.72-3.6 316.22-1.68 312.72 0.25 310.37 0.25L310.37 0.25Q308.12 0.25 306.47-0.93 304.82-2.1 303.94-3.55 303.07-5 303.07-5.7L303.07-5.7Q303.87-8.55 304.82-13.6L304.82-13.6 305.37-16.4Q305.57-17.4 306.82-18.48 308.07-19.55 309.62-20.28 311.17-21 312.12-21L312.12-21Q312.87-21 313.94-20.53 315.02-20.05 315.85-19.05 316.67-18.05 316.67-16.5L316.67-16.5Q316.67-14.7 315.47-13.1 314.27-11.5 311.92-10.5 309.57-9.5 306.27-9.5L306.27-9.5 305.57-6.15Q305.57-5.7 306.1-4.65 306.62-3.6 307.8-2.75 308.97-1.9 310.77-1.9L310.77-1.9Q313.17-1.9 315.82-3.48 318.47-5.05 320.67-7.4 322.87-9.75 323.97-11.95L323.97-11.95ZM311.72-18.95Q311.12-18.95 310.17-18.45 309.22-17.95 308.44-17.2 307.67-16.45 307.52-15.8L307.52-15.8Q307.02-13.55 306.62-11.25L306.62-11.25Q310.47-11.4 312.42-12.78 314.37-14.15 314.37-15.9L314.37-15.9Q314.37-17.15 313.47-18.05 312.57-18.95 311.72-18.95L311.72-18.95ZM357.02-11.55Q357.07-10 355.14-7.15 353.22-4.3 350.42-2.1 347.62 0.1 344.92 0.1L344.92 0.1Q343.02 0.1 341.79-1.13 340.57-2.35 340.57-4.85L340.57-4.85Q340.57-6.9 341.24-9.47 341.92-12.05 343.07-15.6L343.07-15.6Q343.42-16.55 343.72-17.6L343.72-17.6Q343.72-17.75 343.52-17.88 343.32-18 343.12-18L343.12-18Q342.47-18 340.54-16.13 338.62-14.25 336.64-11.83 334.67-9.4 334.02-8.15L334.02-8.15Q333.52-6.6 332.37-1.65L332.37-1.65Q332.17-0.8 332.04-0.5 331.92-0.2 331.62-0.2L331.62-0.2Q331.17-0.2 330.59-0.75 330.02-1.3 330.02-1.85L330.02-1.85Q330.02-2.4 330.52-4.25L330.52-4.25Q332.62-11.95 333.92-17.6L333.92-17.6Q333.62-18 333.17-18L333.17-18Q332.42-18 330.62-16.15 328.82-14.3 326.87-11.48 324.92-8.65 323.67-5.9L323.67-5.9Q322.92-3.45 322.32-0.25L322.32-0.25Q321.82-0.25 321.02-0.6 320.22-0.95 320.22-1.3L320.22-1.3Q320.22-1.7 320.72-3.55L320.72-3.55 324.97-20.1Q325.07-20.55 325.22-20.75 325.37-20.95 325.67-20.95L325.67-20.95Q325.97-20.95 326.69-20.65 327.42-20.35 327.62-20.15L327.62-20.15 327.17-18.55Q327.02-17.95 326.49-16.07 325.97-14.2 325.52-12.2L325.52-12.2Q327.07-14.9 328.74-16.68 330.42-18.45 331.82-19.28 333.22-20.1 333.97-20.1L333.97-20.1Q334.52-20.1 335.37-19.5 336.22-18.9 336.22-18.5L336.22-18.5Q335.77-15.75 334.92-12.3L334.92-12.3Q336.97-15.1 339.82-17.88 342.67-20.65 344.17-20.65L344.17-20.65Q344.87-20.65 345.67-20.1 346.47-19.55 346.52-18.8L346.52-18.8Q344.92-13.85 344.04-10.65 343.17-7.45 343.17-4.9L343.17-4.9Q343.17-3.4 343.67-2.73 344.17-2.05 345.47-2.05L345.47-2.05Q348.52-2.05 351.37-5.38 354.22-8.7 355.72-13.2L355.72-13.2Q356.27-13.2 356.64-12.7 357.02-12.2 357.02-11.55L357.02-11.55ZM374.92-11.95Q375.81-11.8 375.81-10.95L375.81-10.95Q375.81-8.95 373.24-6.28 370.67-3.6 367.17-1.68 363.67 0.25 361.31 0.25L361.31 0.25Q359.06 0.25 357.42-0.93 355.76-2.1 354.89-3.55 354.01-5 354.01-5.7L354.01-5.7Q354.81-8.55 355.76-13.6L355.76-13.6 356.31-16.4Q356.51-17.4 357.76-18.48 359.01-19.55 360.56-20.28 362.12-21 363.06-21L363.06-21Q363.81-21 364.89-20.53 365.97-20.05 366.79-19.05 367.62-18.05 367.62-16.5L367.62-16.5Q367.62-14.7 366.42-13.1 365.22-11.5 362.87-10.5 360.51-9.5 357.22-9.5L357.22-9.5 356.51-6.15Q356.51-5.7 357.04-4.65 357.56-3.6 358.74-2.75 359.92-1.9 361.72-1.9L361.72-1.9Q364.12-1.9 366.76-3.48 369.42-5.05 371.62-7.4 373.81-9.75 374.92-11.95L374.92-11.95ZM362.67-18.95Q362.06-18.95 361.12-18.45 360.17-17.95 359.39-17.2 358.62-16.45 358.47-15.8L358.47-15.8Q357.97-13.55 357.56-11.25L357.56-11.25Q361.42-11.4 363.37-12.78 365.31-14.15 365.31-15.9L365.31-15.9Q365.31-17.15 364.42-18.05 363.51-18.95 362.67-18.95L362.67-18.95ZM397.01-12.2Q397.51-12.2 397.74-11.78 397.96-11.35 397.96-10.8L397.96-10.8Q397.96-9 396.06-6.25 394.16-3.5 391.24-1.45 388.31 0.6 385.46 0.6L385.46 0.6Q383.66 0.6 382.69-0.3 381.71-1.2 381.71-3.05L381.71-3.05Q381.71-5.6 383.11-9.98 384.51-14.35 385.66-17.25L385.66-17.25Q385.46-17.55 385.26-17.55L385.26-17.55Q385.06-17.55 384.81-17.4L384.81-17.4Q383.91-16.85 381.86-14.95 379.81-13.05 377.86-10.95 375.91-8.85 375.21-7.55L375.21-7.55Q374.41-5.4 374.21-4.83 374.01-4.25 373.81-2.95L373.81-2.95 373.36-0.7Q373.31-0.55 373.26-0.33 373.21-0.1 373.14-0.05 373.06 0 372.91 0L372.91 0Q372.46 0 371.74-0.1 371.01-0.2 371.01-0.4L371.01-0.4Q371.01-1 371.36-2.35 371.71-3.7 372.06-4.8 372.41-5.9 372.61-6.5L372.61-6.5 373.06-7.9Q374.51-12.9 375.04-15.18 375.56-17.45 376.06-20.25L376.06-20.25Q376.11-20.75 376.76-20.75L376.76-20.75Q377.21-20.75 377.79-20.53 378.36-20.3 378.46-19.9L378.46-19.9Q378.26-19 377.74-16.85 377.21-14.7 376.46-12.1L376.46-12.1Q379.36-15.35 382.49-18 385.61-20.65 386.66-20.65L386.66-20.65Q387.16-20.65 387.86-20.15 388.56-19.65 388.71-19.2L388.71-19.2Q387.11-14.9 385.66-9.83 384.21-4.75 384.21-3.15L384.21-3.15Q384.21-1.4 386.21-1.4L386.21-1.4Q389.16-1.4 392.19-4.7 395.21-8 397.01-12.2L397.01-12.2ZM414.36-8.3Q414.61-7.95 414.61-7.45L414.61-7.45Q414.61-7.05 414.46-6.75 414.31-6.45 413.96-6L413.96-6Q412.66-4.45 410.33-2.93 408.01-1.4 405.46-0.45 402.91 0.5 401.01 0.5L401.01 0.5Q398.86 0.5 397.44-0.83 396.01-2.15 396.01-4.8L396.01-4.8Q396.01-8.15 398.41-17.4L398.41-17.4 393.11-17.2Q393.01-17.25 392.83-17.38 392.66-17.5 392.61-17.6L392.61-17.6Q392.76-17.85 393.16-18.6 393.56-19.35 393.86-19.65L393.86-19.65 399.01-19.6Q400.66-25.7 402.81-32.15L402.81-32.15Q403.71-32.85 405.11-33.68 406.51-34.5 406.81-34.5L406.81-34.5Q407.26-34.3 407.36-33.95L407.36-33.95Q406.46-33.6 405.96-33.02 405.46-32.45 404.96-31.15L404.96-31.15Q403.51-27.45 401.46-19.6L401.46-19.6 414.21-19.55 414.26-18.75Q414.26-18.35 414.11-18.2 413.96-18.05 413.41-18L413.41-18Q412.71-17.95 400.91-17.5L400.91-17.5Q398.61-8.1 398.61-4.95L398.61-4.95Q398.61-3.2 399.46-2.38 400.31-1.55 402.06-1.55L402.06-1.55Q407.16-1.55 414.36-8.3L414.36-8.3Z" opacity="1" transform="matrix(1,0,0,1,0,0)" fill="#ffffff" class="wordmark-text-0" data-fill-palette-color="primary" id="text-0"></path></svg></g></svg></g><g transform="matrix(1,0,0,1,0,84.03029834658909)"><svg viewBox="0 0 395.52 21.005919602881697" height="21.005919602881697" width="395.52"><g transform="matrix(1,0,0,1,0,0)"><svg width="395.52" viewBox="2.15 -21.7 492.3818181818 26.15" height="21.005919602881697" data-palette-color="#89939e"><path d="M9.75 0L9.75 0 6.2 0Q4.25 0 3.2-1.18 2.15-2.35 2.15-4.6L2.15-4.6 2.15-15.6Q2.15-17.7 3.23-18.95 4.3-20.2 6.2-20.2L6.2-20.2 9.75-20.2Q11.65-20.2 12.73-18.95 13.8-17.7 13.8-15.6L13.8-15.6 13.8-14.25Q13.8-13.9 13.65-13.65 13.5-13.4 13.15-13.4L13.15-13.4 12.8-13.4Q12.15-13.4 12.15-14.25L12.15-14.25 12.15-15.6Q12.15-18.4 9.75-18.4L9.75-18.4 6.2-18.4Q3.85-18.4 3.85-15.6L3.85-15.6 3.85-4.65Q3.85-1.8 6.2-1.8L6.2-1.8 9.75-1.8Q12.15-1.8 12.15-4.65L12.15-4.65 12.15-6Q12.15-6.75 12.8-6.75L12.8-6.75 13.15-6.75Q13.45-6.75 13.63-6.5 13.8-6.25 13.8-6L13.8-6 13.8-4.6Q13.8-2.35 12.75-1.18 11.7 0 9.75 0ZM23.15 0L23.15 0 21.05 0Q19.35 0 18.4-1.1 17.45-2.2 17.45-4.1L17.45-4.1 17.45-10.6Q17.45-12.5 18.4-13.6 19.35-14.7 21.05-14.7L21.05-14.7 23.15-14.7Q24.8-14.7 25.8-13.6 26.8-12.5 26.8-10.6L26.8-10.6 26.8-4.1Q26.8-2.2 25.8-1.1 24.8 0 23.15 0ZM25.35-4.15L25.35-10.6Q25.35-13.15 23.15-13.15L23.15-13.15 21.05-13.15Q18.85-13.15 18.85-10.6L18.85-10.6 18.85-4.15Q18.85-1.55 21.05-1.55L21.05-1.55 23.15-1.55Q25.35-1.55 25.35-4.15L25.35-4.15ZM36 0L36 0 33.9 0Q32.2 0 31.25-1.1 30.3-2.2 30.3-4.1L30.3-4.1 30.3-10.6Q30.3-12.5 31.25-13.6 32.2-14.7 33.9-14.7L33.9-14.7 36-14.7Q37.65-14.7 38.65-13.6 39.65-12.5 39.65-10.6L39.65-10.6 39.65-4.1Q39.65-2.2 38.65-1.1 37.65 0 36 0ZM38.2-4.15L38.2-10.6Q38.2-13.15 36-13.15L36-13.15 33.9-13.15Q31.7-13.15 31.7-10.6L31.7-10.6 31.7-4.15Q31.7-1.55 33.9-1.55L33.9-1.55 36-1.55Q38.2-1.55 38.2-4.15L38.2-4.15ZM51.55 0L51.55 0 51.15 0Q50.6 0 50.4-0.4L50.4-0.4 46.2-7.3Q45.9-7.7 46.2-8.15L46.2-8.15 49.95-14.55Q50.05-14.75 50.33-14.85 50.6-14.95 50.7-14.95L50.7-14.95 51-14.95Q51.35-14.95 51.45-14.65 51.55-14.35 51.4-14.1L51.4-14.1 47.7-7.7 51.95-0.85Q52.2-0.5 52.08-0.25 51.95 0 51.55 0ZM44.3 0L44.3 0 43.95 0Q43.7 0 43.58-0.2 43.45-0.4 43.45-0.65L43.45-0.65 43.45-19.6Q43.45-20.25 43.95-20.25L43.95-20.25 44.3-20.25Q44.85-20.25 44.85-19.6L44.85-19.6 44.85-0.65Q44.85 0 44.3 0ZM56.7-0.5L56.7-0.5Q56.6 0.35 56.53 0.95 56.45 1.55 56.45 1.95L56.45 1.95 56.4 2.6Q56.35 2.7 56.35 2.7L56.35 2.7 56.35 2.95Q56.35 3.2 56.2 3.35L56.2 3.35Q56 3.45 55.95 3.45L55.95 3.45Q55.9 3.45 55.88 3.43 55.85 3.4 55.75 3.4L55.75 3.4Q55.55 3.35 55.55 3.13 55.55 2.9 55.5 2.8L55.5 2.8 55.4-3.9Q55.4-4.1 55.38-4.35 55.35-4.6 55.55-4.6L55.55-4.6 56.55-4.6Q56.55-4.55 56.6-4.5L56.6-4.5 56.75-3.8Q56.8-2.95 56.8-2.13 56.8-1.3 56.7-0.5ZM78.1 0L78.1 0 74.55 0Q72.6 0 71.55-1.18 70.5-2.35 70.5-4.6L70.5-4.6 70.5-15.6Q70.5-17.7 71.58-18.95 72.65-20.2 74.55-20.2L74.55-20.2 78.1-20.2Q80-20.2 81.08-18.95 82.15-17.7 82.15-15.6L82.15-15.6 82.15-14.25Q82.15-13.9 82-13.65 81.85-13.4 81.5-13.4L81.5-13.4 81.15-13.4Q80.5-13.4 80.5-14.25L80.5-14.25 80.5-15.6Q80.5-18.4 78.1-18.4L78.1-18.4 74.55-18.4Q72.2-18.4 72.2-15.6L72.2-15.6 72.2-4.65Q72.2-1.8 74.55-1.8L74.55-1.8 78.1-1.8Q80.5-1.8 80.5-4.65L80.5-4.65 80.5-6Q80.5-6.75 81.15-6.75L81.15-6.75 81.5-6.75Q81.8-6.75 81.98-6.5 82.15-6.25 82.15-6L82.15-6 82.15-4.6Q82.15-2.35 81.1-1.18 80.05 0 78.1 0ZM89.85-13.15L89.85-13.15 88.95-13.15Q87.95-13.15 87.4-12.38 86.85-11.6 86.85-10.35L86.85-10.35 86.85-0.65Q86.85 0 86.35 0L86.35 0 86.05 0Q85.65 0 85.65-0.65L85.65-0.65 85.65-14.1Q85.65-14.7 86.05-14.7L86.05-14.7 86.35-14.7Q86.55-14.7 86.65-14.6 86.75-14.5 86.95-14L86.95-14Q87.6-14.35 88.03-14.53 88.45-14.7 89-14.7L89-14.7 89.85-14.7Q90.05-14.7 90.2-14.53 90.35-14.35 90.35-14.1L90.35-14.1 90.35-13.75Q90.35-13.15 89.85-13.15ZM102.15-6.45L102.15-6.45 94.7-6.45 94.7-4.15Q94.7-1.55 96.9-1.55L96.9-1.55 101.95-1.55Q102.55-1.55 102.55-0.95L102.55-0.95 102.55-0.6Q102.55-0.3 102.35-0.15 102.15 0 101.95 0L101.95 0 96.9 0Q95.2 0 94.25-1.1 93.3-2.2 93.3-4.1L93.3-4.1 93.3-10.6Q93.3-12.5 94.25-13.6 95.2-14.7 96.9-14.7L96.9-14.7 99.05-14.7Q100.8-14.7 101.75-13.6 102.7-12.5 102.7-10.6L102.7-10.6 102.7-7.15Q102.7-6.45 102.15-6.45ZM101.3-8L101.3-10.6Q101.3-13.15 99.05-13.15L99.05-13.15 96.9-13.15Q94.7-13.15 94.7-10.6L94.7-10.6 94.7-8 101.3-8ZM114.7 0L114.7 0 114.4 0Q114.05 0 113.75-0.65L113.75-0.65Q112.4 0 111.5 0L111.5 0 109.7 0Q108 0 107.05-1.1 106.1-2.2 106.1-4.1L106.1-4.1 106.1-10.6Q106.1-12.5 107.05-13.6 108-14.7 109.7-14.7L109.7-14.7 114.7-14.7Q115.3-14.7 115.3-14.1L115.3-14.1 115.3-0.65Q115.3 0 114.7 0ZM113.95-11.05L113.95-11.7Q113.95-11.9 113.85-12.3L113.85-12.3Q113.75-12.65 113.5-12.85 113.25-13.05 112.7-13.15L112.7-13.15 109.7-13.15Q107.5-13.15 107.5-10.6L107.5-10.6 107.5-4.15Q107.5-1.55 109.7-1.55L109.7-1.55 111.45-1.55Q113.9-1.55 113.9-4L113.9-4Q113.9-7.4 113.93-8.95 113.95-10.5 113.95-11.05L113.95-11.05ZM124.75 0L124.75 0 123.9 0Q122.25 0 121.25-1.1 120.25-2.2 120.25-4.1L120.25-4.1 120.25-13.25 118.85-13.25Q118.35-13.25 118.35-13.85L118.35-13.85 118.35-14.2Q118.35-14.85 118.85-14.85L118.85-14.85 120.25-14.85 120.25-16.8Q120.25-17.05 120.4-17.28 120.55-17.5 120.8-17.5L120.8-17.5 121.15-17.5Q121.4-17.5 121.53-17.28 121.65-17.05 121.65-16.8L121.65-16.8 121.65-14.85 124.5-14.85Q125.05-14.85 125.05-14.2L125.05-14.2 125.05-13.85Q125.05-13.5 124.88-13.38 124.7-13.25 124.5-13.25L124.5-13.25 121.65-13.25 121.65-4.1Q121.65-1.6 123.9-1.6L123.9-1.6 124.75-1.6Q125.3-1.6 125.3-1L125.3-1 125.3-0.6Q125.3-0.25 125.13-0.13 124.95 0 124.75 0ZM136.95-6.45L136.95-6.45 129.5-6.45 129.5-4.15Q129.5-1.55 131.7-1.55L131.7-1.55 136.75-1.55Q137.35-1.55 137.35-0.95L137.35-0.95 137.35-0.6Q137.35-0.3 137.15-0.15 136.95 0 136.75 0L136.75 0 131.7 0Q130 0 129.05-1.1 128.1-2.2 128.1-4.1L128.1-4.1 128.1-10.6Q128.1-12.5 129.05-13.6 130-14.7 131.7-14.7L131.7-14.7 133.85-14.7Q135.6-14.7 136.55-13.6 137.5-12.5 137.5-10.6L137.5-10.6 137.5-7.15Q137.5-6.45 136.95-6.45ZM136.1-8L136.1-10.6Q136.1-13.15 133.85-13.15L133.85-13.15 131.7-13.15Q129.5-13.15 129.5-10.6L129.5-10.6 129.5-8 136.1-8ZM142.95-0.5L142.95-0.5Q142.85 0.35 142.78 0.95 142.7 1.55 142.7 1.95L142.7 1.95 142.65 2.6Q142.6 2.7 142.6 2.7L142.6 2.7 142.6 2.95Q142.6 3.2 142.45 3.35L142.45 3.35Q142.25 3.45 142.2 3.45L142.2 3.45Q142.15 3.45 142.13 3.43 142.1 3.4 142 3.4L142 3.4Q141.8 3.35 141.8 3.13 141.8 2.9 141.75 2.8L141.75 2.8 141.65-3.9Q141.65-4.1 141.63-4.35 141.6-4.6 141.8-4.6L141.8-4.6 142.8-4.6Q142.8-4.55 142.85-4.5L142.85-4.5 143-3.8Q143.05-2.95 143.05-2.13 143.05-1.3 142.95-0.5ZM163.75 0L163.75 0 160.5 0Q158.55 0 157.5-1.18 156.45-2.35 156.45-4.6L156.45-4.6 156.45-5.75Q156.45-6.55 157.05-6.55L157.05-6.55 157.5-6.55Q158.15-6.55 158.15-5.75L158.15-5.75 158.15-4.65Q158.15-1.8 160.5-1.8L160.5-1.8 163.75-1.8Q166.15-1.8 166.15-4.65L166.15-4.65 166.15-6.05Q166.15-7.15 165.3-7.9 164.45-8.65 163.05-9L163.05-9Q161.95-9.25 160.85-9.53 159.75-9.8 158.75-10.35L158.75-10.35Q157.75-10.9 157.1-11.73 156.45-12.55 156.45-13.85L156.45-13.85 156.45-15.6Q156.45-17.7 157.53-18.95 158.6-20.2 160.5-20.2L160.5-20.2 163.75-20.2Q165.65-20.2 166.73-18.95 167.8-17.7 167.8-15.6L167.8-15.6 167.8-14.8Q167.8-13.95 167.15-13.95L167.15-13.95 166.8-13.95Q166.15-13.95 166.15-14.8L166.15-14.8 166.15-15.6Q166.15-18.4 163.75-18.4L163.75-18.4 160.5-18.4Q158.15-18.4 158.15-15.6L158.15-15.6 158.15-13.9Q158.15-13.05 158.8-12.38 159.45-11.7 161.15-11.3L161.15-11.3Q162.3-11.05 163.38-10.78 164.45-10.5 165.5-9.9L165.5-9.9Q166.5-9.35 167.15-8.47 167.8-7.6 167.8-6.15L167.8-6.15 167.8-4.6Q167.8-2.35 166.75-1.18 165.7 0 163.75 0ZM180.25 0L180.25 0 179.9 0Q179.4 0 179.4-0.65L179.4-0.65 179.4-10.75Q179.4-13.35 177.2-13.35L177.2-13.35 175.4-13.35Q173.05-13.35 173.05-10.85L173.05-10.85 173.05-0.65Q173.05 0 172.5 0L172.5 0 172.15 0Q171.9 0 171.78-0.2 171.65-0.4 171.65-0.65L171.65-0.65 171.65-19.6Q171.65-20.25 172.15-20.25L172.15-20.25 172.5-20.25Q173.05-20.25 173.05-19.6L173.05-19.6 173.05-14.3Q173.8-14.7 174.38-14.83 174.95-14.95 175.4-14.95L175.4-14.95 177.2-14.95Q178.85-14.95 179.85-13.88 180.85-12.8 180.85-10.75L180.85-10.75 180.85-0.65Q180.85 0 180.25 0ZM193 0L193 0 192.7 0Q192.35 0 192.05-0.65L192.05-0.65Q190.7 0 189.8 0L189.8 0 188 0Q186.3 0 185.35-1.1 184.4-2.2 184.4-4.1L184.4-4.1 184.4-10.6Q184.4-12.5 185.35-13.6 186.3-14.7 188-14.7L188-14.7 193-14.7Q193.6-14.7 193.6-14.1L193.6-14.1 193.6-0.65Q193.6 0 193 0ZM192.25-11.05L192.25-11.7Q192.25-11.9 192.15-12.3L192.15-12.3Q192.05-12.65 191.8-12.85 191.55-13.05 191-13.15L191-13.15 188-13.15Q185.8-13.15 185.8-10.6L185.8-10.6 185.8-4.15Q185.8-1.55 188-1.55L188-1.55 189.75-1.55Q192.2-1.55 192.2-4L192.2-4Q192.2-7.4 192.23-8.95 192.25-10.5 192.25-11.05L192.25-11.05ZM201.2-13.15L201.2-13.15 200.3-13.15Q199.3-13.15 198.75-12.38 198.2-11.6 198.2-10.35L198.2-10.35 198.2-0.65Q198.2 0 197.7 0L197.7 0 197.4 0Q197 0 197-0.65L197-0.65 197-14.1Q197-14.7 197.4-14.7L197.4-14.7 197.7-14.7Q197.9-14.7 198-14.6 198.1-14.5 198.3-14L198.3-14Q198.95-14.35 199.38-14.53 199.8-14.7 200.35-14.7L200.35-14.7 201.2-14.7Q201.4-14.7 201.55-14.53 201.7-14.35 201.7-14.1L201.7-14.1 201.7-13.75Q201.7-13.15 201.2-13.15ZM213.5-6.45L213.5-6.45 206.05-6.45 206.05-4.15Q206.05-1.55 208.25-1.55L208.25-1.55 213.3-1.55Q213.9-1.55 213.9-0.95L213.9-0.95 213.9-0.6Q213.9-0.3 213.7-0.15 213.5 0 213.3 0L213.3 0 208.25 0Q206.55 0 205.6-1.1 204.65-2.2 204.65-4.1L204.65-4.1 204.65-10.6Q204.65-12.5 205.6-13.6 206.55-14.7 208.25-14.7L208.25-14.7 210.4-14.7Q212.15-14.7 213.1-13.6 214.05-12.5 214.05-10.6L214.05-10.6 214.05-7.15Q214.05-6.45 213.5-6.45ZM212.65-8L212.65-10.6Q212.65-13.15 210.4-13.15L210.4-13.15 208.25-13.15Q206.05-13.15 206.05-10.6L206.05-10.6 206.05-8 212.65-8ZM218.95-12.9L218.15-12.9Q218.05-12.95 218-13.05L218-13.05Q217.9-13.2 217.9-13.65L217.9-13.65 217.9-16.45Q217.9-16.9 218.05-17.05L218.05-17.05Q218.1-17.2 218.05-17.2L218.05-17.2 219.05-17.2Q219.1-17.2 219.05-17.18 219-17.15 219.05-17.05L219.05-17.05Q219.25-16.85 219.25-16.45L219.25-16.45 219.25-13.65Q219.25-13.25 219.05-13.1L219.05-13.1 218.95-12.9ZM218.05-4.5L218.95-4.5 219.2-4.3Q219.25-4.25 219.25-3.75L219.25-3.75 219.25-0.7Q219.25-0.45 219.1-0.15L219.1-0.15Q219 0 219.05 0L219.05 0 218.1 0Q218.1-0.05 217.9-0.3L217.9-0.3Q217.9-0.3 217.9-0.7L217.9-0.7 217.9-3.75Q217.9-4.15 218-4.4L218-4.4Q218.1-4.5 218.05-4.5L218.05-4.5ZM243.95-19.25L238.6-7.75 238.6-0.7Q238.6 0 237.9 0L237.9 0 237.55 0Q237.2 0 237.08-0.23 236.95-0.45 236.95-0.7L236.95-0.7 236.95-7.75 231.55-19.2Q231.4-19.5 231.48-19.85 231.55-20.2 232.05-20.2L232.05-20.2 232.55-20.2Q232.9-20.2 233.15-19.85L233.15-19.85 233.3-19.65 237.75-9.9 242.25-19.7Q242.35-19.9 242.5-20L242.5-20Q242.6-20.1 242.68-20.15 242.75-20.2 243-20.2L243-20.2 243.4-20.2Q243.9-20.2 243.98-19.9 244.05-19.6 243.95-19.25L243.95-19.25ZM252.45 0L252.45 0 250.35 0Q248.65 0 247.7-1.1 246.75-2.2 246.75-4.1L246.75-4.1 246.75-10.6Q246.75-12.5 247.7-13.6 248.65-14.7 250.35-14.7L250.35-14.7 252.45-14.7Q254.1-14.7 255.1-13.6 256.1-12.5 256.1-10.6L256.1-10.6 256.1-4.1Q256.1-2.2 255.1-1.1 254.1 0 252.45 0ZM254.65-4.15L254.65-10.6Q254.65-13.15 252.45-13.15L252.45-13.15 250.35-13.15Q248.15-13.15 248.15-10.6L248.15-10.6 248.15-4.15Q248.15-1.55 250.35-1.55L250.35-1.55 252.45-1.55Q254.65-1.55 254.65-4.15L254.65-4.15ZM268.45 0L268.45 0 268.15 0Q267.8 0 267.5-0.65L267.5-0.65Q266.85-0.3 266.33-0.15 265.8 0 265.2 0L265.2 0 263.45 0Q261.8 0 260.8-1.1 259.8-2.2 259.8-4.1L259.8-4.1 259.8-14.1Q259.8-14.7 260.35-14.7L260.35-14.7 260.75-14.7Q261-14.7 261.15-14.53 261.3-14.35 261.3-14.1L261.3-14.1 261.3-4.15Q261.3-1.55 263.45-1.55L263.45-1.55 265.2-1.55Q267.6-1.55 267.6-4L267.6-4 267.6-14.1Q267.6-14.7 268.15-14.7L268.15-14.7 268.45-14.7Q268.7-14.7 268.85-14.53 269-14.35 269-14.1L269-14.1 269-0.65Q269 0 268.45 0ZM276.35-13.15L276.35-13.15 275.45-13.15Q274.45-13.15 273.9-12.38 273.35-11.6 273.35-10.35L273.35-10.35 273.35-0.65Q273.35 0 272.85 0L272.85 0 272.55 0Q272.15 0 272.15-0.65L272.15-0.65 272.15-14.1Q272.15-14.7 272.55-14.7L272.55-14.7 272.85-14.7Q273.05-14.7 273.15-14.6 273.25-14.5 273.45-14L273.45-14Q274.1-14.35 274.53-14.53 274.95-14.7 275.5-14.7L275.5-14.7 276.35-14.7Q276.55-14.7 276.7-14.53 276.85-14.35 276.85-14.1L276.85-14.1 276.85-13.75Q276.85-13.15 276.35-13.15ZM299.95 0L299.95 0 299.4 0Q298.9 0 298.75-0.4L298.75-0.4 295.55-8.1 291.1-8.1 291.1-0.7Q291.1 0 290.35 0L290.35 0 290.05 0Q289.8 0 289.58-0.13 289.35-0.25 289.35-0.7L289.35-0.7 289.35-19.5Q289.35-20.2 290.05-20.2L290.05-20.2 296.05-20.2Q298-20.2 299.08-19.03 300.15-17.85 300.15-15.6L300.15-15.6 300.15-12.7Q300.15-11.05 299.48-9.98 298.8-8.9 297.25-8.2L297.25-8.2 300.4-0.95Q300.45-0.75 300.48-0.38 300.5 0 299.95 0ZM298.5-12.7L298.5-15.6Q298.5-18.45 296.05-18.45L296.05-18.45 291.1-18.45 291.1-9.9 296.05-9.9Q298.5-9.9 298.5-12.7L298.5-12.7ZM312.75-6.45L312.75-6.45 305.3-6.45 305.3-4.15Q305.3-1.55 307.5-1.55L307.5-1.55 312.55-1.55Q313.15-1.55 313.15-0.95L313.15-0.95 313.15-0.6Q313.15-0.3 312.95-0.15 312.75 0 312.55 0L312.55 0 307.5 0Q305.8 0 304.85-1.1 303.9-2.2 303.9-4.1L303.9-4.1 303.9-10.6Q303.9-12.5 304.85-13.6 305.8-14.7 307.5-14.7L307.5-14.7 309.65-14.7Q311.4-14.7 312.35-13.6 313.3-12.5 313.3-10.6L313.3-10.6 313.3-7.15Q313.3-6.45 312.75-6.45ZM311.9-8L311.9-10.6Q311.9-13.15 309.65-13.15L309.65-13.15 307.5-13.15Q305.3-13.15 305.3-10.6L305.3-10.6 305.3-8 311.9-8ZM323.5 0L323.5 0 320.2 0Q318.6 0 317.65-1.1 316.7-2.2 316.7-4.1L316.7-4.1 316.7-10.6Q316.7-12.5 317.65-13.6 318.6-14.7 320.2-14.7L320.2-14.7 323.5-14.7Q324.05-14.7 324.05-14.1L324.05-14.1 324.05-13.75Q324.05-13.45 323.88-13.3 323.7-13.15 323.5-13.15L323.5-13.15 320.2-13.15Q318.1-13.15 318.1-10.6L318.1-10.6 318.1-4.15Q318.1-1.55 320.2-1.55L320.2-1.55 323.5-1.55Q324.05-1.55 324.05-0.95L324.05-0.95 324.05-0.6Q324.05-0.25 323.88-0.13 323.7 0 323.5 0ZM328.7-16.6L328.7-16.6 327.3-16.6Q327.2-16.6 327.28-16.85 327.35-17.1 327.35-17.3L327.35-17.3 327.35-19.55Q327.35-19.8 327.28-20 327.2-20.2 327.3-20.2L327.3-20.2 328.7-20.2Q328.8-20.2 328.78-20 328.75-19.8 328.75-19.55L328.75-19.55 328.75-17.3Q328.75-17.1 328.78-16.85 328.8-16.6 328.7-16.6ZM328.7 0L328.7 0 327.3 0Q327.2 0 327.28-0.23 327.35-0.45 327.35-0.65L327.35-0.65 327.35-14.3Q327.35-14.55 327.28-14.75 327.2-14.95 327.3-14.95L327.3-14.95 328.7-14.95Q328.8-14.95 328.78-14.75 328.75-14.55 328.75-14.3L328.75-14.3 328.75-0.65Q328.75-0.45 328.78-0.23 328.8 0 328.7 0ZM338.6 0.2L338.6 0.2 336.8 0.2Q336.25 0.2 335.78 0.05 335.3-0.1 334.45-0.6L334.45-0.6 334.45 3.8Q334.45 4.05 334.3 4.25 334.15 4.45 333.9 4.45L333.9 4.45 333.55 4.45Q333.3 4.45 333.18 4.25 333.05 4.05 333.05 3.8L333.05 3.8 333.05-14.1Q333.05-14.35 333.18-14.53 333.3-14.7 333.55-14.7L333.55-14.7 333.9-14.7Q334.05-14.7 334.18-14.58 334.3-14.45 334.55-14.05L334.55-14.05Q335.8-14.7 336.8-14.7L336.8-14.7 338.6-14.7Q340.25-14.7 341.25-13.65 342.25-12.6 342.25-10.55L342.25-10.55 342.25-3.95Q342.25-1.85 341.25-0.83 340.25 0.2 338.6 0.2ZM340.8-4L340.8-10.55Q340.8-13.1 338.6-13.1L338.6-13.1 336.8-13.1Q334.45-13.1 334.45-10.7L334.45-10.7 334.45-3.85Q334.45-1.45 336.8-1.45L336.8-1.45 338.6-1.45Q340.8-1.45 340.8-4L340.8-4ZM354.6-6.45L354.6-6.45 347.15-6.45 347.15-4.15Q347.15-1.55 349.35-1.55L349.35-1.55 354.4-1.55Q355-1.55 355-0.95L355-0.95 355-0.6Q355-0.3 354.8-0.15 354.6 0 354.4 0L354.4 0 349.35 0Q347.65 0 346.7-1.1 345.75-2.2 345.75-4.1L345.75-4.1 345.75-10.6Q345.75-12.5 346.7-13.6 347.65-14.7 349.35-14.7L349.35-14.7 351.5-14.7Q353.25-14.7 354.2-13.6 355.15-12.5 355.15-10.6L355.15-10.6 355.15-7.15Q355.15-6.45 354.6-6.45ZM353.75-8L353.75-10.6Q353.75-13.15 351.5-13.15L351.5-13.15 349.35-13.15Q347.15-13.15 347.15-10.6L347.15-10.6 347.15-8 353.75-8ZM363.25 0L363.25 0 359.15 0Q358.65 0 358.65-0.6L358.65-0.6 358.65-0.95Q358.65-1.55 359.15-1.55L359.15-1.55 363.25-1.55Q364.4-1.55 364.9-2.05 365.4-2.55 365.4-3.4L365.4-3.4 365.4-4.15Q365.4-5.1 365.15-5.58 364.9-6.05 364.1-6.4L364.1-6.4 360.95-7.6Q359.5-8.15 359-8.97 358.5-9.8 358.5-11.25L358.5-11.25Q358.5-14.7 361.8-14.7L361.8-14.7 365.65-14.7Q365.9-14.7 366.05-14.53 366.2-14.35 366.2-14.1L366.2-14.1 366.2-13.75Q366.2-13.15 365.65-13.15L365.65-13.15 361.8-13.15Q360.7-13.15 360.33-12.68 359.95-12.2 359.95-11.65L359.95-11.65 359.95-10.9Q359.95-10.2 360.23-9.85 360.5-9.5 361.35-9.15L361.35-9.15 364.5-7.85Q365.8-7.3 366.28-6.28 366.75-5.25 366.75-3.55L366.75-3.55Q366.75-1.65 365.88-0.83 365 0 363.25 0ZM371.8-0.5L371.8-0.5Q371.7 0.35 371.63 0.95 371.55 1.55 371.55 1.95L371.55 1.95 371.5 2.6Q371.45 2.7 371.45 2.7L371.45 2.7 371.45 2.95Q371.45 3.2 371.3 3.35L371.3 3.35Q371.1 3.45 371.05 3.45L371.05 3.45Q371 3.45 370.98 3.43 370.95 3.4 370.85 3.4L370.85 3.4Q370.65 3.35 370.65 3.13 370.65 2.9 370.6 2.8L370.6 2.8 370.5-3.9Q370.5-4.1 370.48-4.35 370.45-4.6 370.65-4.6L370.65-4.6 371.65-4.6Q371.65-4.55 371.7-4.5L371.7-4.5 371.85-3.8Q371.9-2.95 371.9-2.13 371.9-1.3 371.8-0.5ZM397.05-19.25L391.7-7.75 391.7-0.7Q391.7 0 391 0L391 0 390.65 0Q390.3 0 390.18-0.23 390.05-0.45 390.05-0.7L390.05-0.7 390.05-7.75 384.65-19.2Q384.5-19.5 384.58-19.85 384.65-20.2 385.15-20.2L385.15-20.2 385.65-20.2Q386-20.2 386.25-19.85L386.25-19.85 386.4-19.65 390.85-9.9 395.35-19.7Q395.45-19.9 395.6-20L395.6-20Q395.7-20.1 395.78-20.15 395.85-20.2 396.1-20.2L396.1-20.2 396.5-20.2Q397-20.2 397.08-19.9 397.15-19.6 397.05-19.25L397.05-19.25ZM405.55 0L405.55 0 403.45 0Q401.75 0 400.8-1.1 399.85-2.2 399.85-4.1L399.85-4.1 399.85-10.6Q399.85-12.5 400.8-13.6 401.75-14.7 403.45-14.7L403.45-14.7 405.55-14.7Q407.2-14.7 408.2-13.6 409.2-12.5 409.2-10.6L409.2-10.6 409.2-4.1Q409.2-2.2 408.2-1.1 407.2 0 405.55 0ZM407.75-4.15L407.75-10.6Q407.75-13.15 405.55-13.15L405.55-13.15 403.45-13.15Q401.25-13.15 401.25-10.6L401.25-10.6 401.25-4.15Q401.25-1.55 403.45-1.55L403.45-1.55 405.55-1.55Q407.75-1.55 407.75-4.15L407.75-4.15ZM421.55 0L421.55 0 421.25 0Q420.9 0 420.6-0.65L420.6-0.65Q419.95-0.3 419.43-0.15 418.9 0 418.3 0L418.3 0 416.55 0Q414.9 0 413.9-1.1 412.9-2.2 412.9-4.1L412.9-4.1 412.9-14.1Q412.9-14.7 413.45-14.7L413.45-14.7 413.85-14.7Q414.1-14.7 414.25-14.53 414.4-14.35 414.4-14.1L414.4-14.1 414.4-4.15Q414.4-1.55 416.55-1.55L416.55-1.55 418.3-1.55Q420.7-1.55 420.7-4L420.7-4 420.7-14.1Q420.7-14.7 421.25-14.7L421.25-14.7 421.55-14.7Q421.8-14.7 421.95-14.53 422.1-14.35 422.1-14.1L422.1-14.1 422.1-0.65Q422.1 0 421.55 0ZM429.45-13.15L429.45-13.15 428.55-13.15Q427.55-13.15 427-12.38 426.45-11.6 426.45-10.35L426.45-10.35 426.45-0.65Q426.45 0 425.95 0L425.95 0 425.65 0Q425.25 0 425.25-0.65L425.25-0.65 425.25-14.1Q425.25-14.7 425.65-14.7L425.65-14.7 425.95-14.7Q426.15-14.7 426.25-14.6 426.35-14.5 426.55-14L426.55-14Q427.2-14.35 427.63-14.53 428.05-14.7 428.6-14.7L428.6-14.7 429.45-14.7Q429.65-14.7 429.8-14.53 429.95-14.35 429.95-14.1L429.95-14.1 429.95-13.75Q429.95-13.15 429.45-13.15ZM463.35-19.4L459.2-0.65Q459.05 0 458.45 0L458.45 0 457.7 0Q457.1 0 456.9-0.6L456.9-0.6 452.55-16.85 448.2-0.6Q448.1-0.35 447.93-0.18 447.75 0 447.45 0L447.45 0 446.7 0Q446.3 0 446.13-0.13 445.95-0.25 445.85-0.65L445.85-0.65 441.65-19.3Q441.55-19.75 441.8-19.98 442.05-20.2 442.4-20.2L442.4-20.2 442.75-20.2Q443.3-20.2 443.55-19.5L443.55-19.5 447.1-3.35 451.45-19.6Q451.6-19.85 451.78-20.03 451.95-20.2 452.25-20.2L452.25-20.2 452.8-20.2Q453.1-20.2 453.28-20.03 453.45-19.85 453.55-19.6L453.55-19.6 457.95-3.3 461.55-19.55Q461.65-19.8 461.8-20 461.95-20.2 462.35-20.2L462.35-20.2 462.75-20.2Q463.3-20.2 463.38-19.93 463.45-19.65 463.35-19.4L463.35-19.4ZM474.8 0L474.8 0 474.5 0Q474.15 0 473.85-0.65L473.85-0.65Q472.5 0 471.6 0L471.6 0 469.8 0Q468.1 0 467.15-1.1 466.2-2.2 466.2-4.1L466.2-4.1 466.2-10.6Q466.2-12.5 467.15-13.6 468.1-14.7 469.8-14.7L469.8-14.7 474.8-14.7Q475.4-14.7 475.4-14.1L475.4-14.1 475.4-0.65Q475.4 0 474.8 0ZM474.05-11.05L474.05-11.7Q474.05-11.9 473.95-12.3L473.95-12.3Q473.85-12.65 473.6-12.85 473.35-13.05 472.8-13.15L472.8-13.15 469.8-13.15Q467.6-13.15 467.6-10.6L467.6-10.6 467.6-4.15Q467.6-1.55 469.8-1.55L469.8-1.55 471.55-1.55Q474-1.55 474-4L474-4Q474-7.4 474.03-8.95 474.05-10.5 474.05-11.05L474.05-11.05ZM488.95-13.85L484.75-1.05Q484.35 0.2 484.05 0.98 483.75 1.75 483.5 2.15L483.5 2.15Q482.35 4.25 480.2 4.25L480.2 4.25 479.55 4.25Q478.9 4.25 478.9 3.6L478.9 3.6 478.9 3.3Q478.9 2.65 479.55 2.65L479.55 2.65 480.2 2.65Q481.5 2.65 482.1 1.65 482.7 0.65 483.05-0.5L483.05-0.5Q482-3.5 480.83-7.03 479.65-10.55 478.5-13.95L478.5-13.95Q478.4-14.2 478.53-14.45 478.65-14.7 478.95-14.7L478.95-14.7 479.35-14.7Q479.7-14.7 479.85-14.4L479.85-14.4Q479.9-14.15 479.95-14.15L479.95-14.15 483.7-2.7 486.2-10.35 487.45-14.2Q487.65-14.7 488.1-14.7L488.1-14.7 488.45-14.7Q488.85-14.7 488.9-14.4 488.95-14.1 488.95-13.85L488.95-13.85ZM494.4-7.75L494.4-7.75Q494.35-7.35 494.28-7.23 494.2-7.1 494.1-7.1L494.1-7.1 493.15-7.05Q493.1-7.05 493.05-7.1L493.05-7.1 493.05-7.35 493-7.75Q492.95-8.8 492.95-11.3 492.95-13.8 492.95-18.2L492.95-18.2 492.95-20.95Q492.95-21.15 492.9-21.43 492.85-21.7 493.05-21.7L493.05-21.7 494.35-21.7Q494.55-21.7 494.53-21.43 494.5-21.15 494.5-20.95L494.5-20.95 494.5-18.2 494.5-12.95Q494.5-10.8 494.45-9.47 494.4-8.15 494.4-7.75ZM494.3 0L494.3 0 493.05 0Q492.9 0 492.93-0.25 492.95-0.5 492.95-0.7L492.95-0.7 492.95-4.15Q492.95-4.35 492.9-4.63 492.85-4.9 493.05-4.9L493.05-4.9 494.3-4.9Q494.5-4.9 494.48-4.63 494.45-4.35 494.45-4.15L494.45-4.15 494.45-0.7Q494.45-0.5 494.48-0.25 494.5 0 494.3 0Z" opacity="1" transform="matrix(1,0,0,1,0,0)" fill="#ffffff" class="slogan-text-1" data-fill-palette-color="secondary" id="text-1"></path></svg></g></svg></g></svg></g></svg></g><g transform="matrix(1,0,0,1,83.14605414190534,0)"><svg viewBox="0 0 229.2278917161893 229.2278917161893" height="229.2278917161893" width="229.2278917161893"><g><svg></svg></g><g id="icon-0"><svg viewBox="0 0 229.2278917161893 229.2278917161893" height="229.2278917161893" width="229.2278917161893"><g><path d="M0 114.614c0-63.3 51.314-114.614 114.614-114.614 63.3 0 114.614 51.314 114.614 114.614 0 63.3-51.314 114.614-114.614 114.614-63.3 0-114.614-51.314-114.614-114.614zM114.614 223.097c59.914 0 108.483-48.57 108.483-108.483 0-59.914-48.57-108.483-108.483-108.483-59.914 0-108.483 48.57-108.483 108.483 0 59.914 48.57 108.483 108.483 108.483z" data-fill-palette-color="accent" fill="#ffffff" stroke="transparent"></path><ellipse rx="113.4678063995137" ry="113.4678063995137" cx="114.61394585809465" cy="114.61394585809465" fill="#ffffff" stroke="transparent" stroke-width="0" fill-opacity="1" data-fill-palette-color="accent"></ellipse></g><g transform="matrix(1,0,0,1,63.563451033807695,46.54661942571204)"><svg viewBox="0 0 102.10098964857391 136.13465286476523" height="136.13465286476523" width="102.10098964857391"><g><svg xmlns="http://www.w3.org/2000/svg" viewBox="18.5 8 60 80" x="0" y="0" height="136.13465286476523" width="102.10098964857391" class="icon-dxe-0" data-fill-palette-color="quaternary" id="dxe-0"><g fill="#ffffff" data-fill-palette-color="quaternary"><path d="M76.5 16H70.5V10A2 2 0 0 0 68.5 8H24.5A6.007 6.007 0 0 0 18.5 14V82A6.007 6.007 0 0 0 24.5 88H76.5A2 2 0 0 0 78.5 86V18A2 2 0 0 0 76.5 16M24.5 12H66.5V16H24.5A2 2 0 0 1 24.5 12M74.5 84H24.5A2.003 2.003 0 0 1 22.5 82V19.632A5.9 5.9 0 0 0 24.5 20H74.5Z" fill="#000000" data-fill-palette-color="quaternary"></path><path d="M52.5 28A2 2 0 0 0 50.5 30V74A2 2 0 0 0 54.5 74V56H64.5A2 2 0 0 0 66.5 54V42A14.017 14.017 0 0 0 52.5 28M62.5 52H54.5V32.201A10.02 10.02 0 0 1 62.5 42Z" fill="#000000" data-fill-palette-color="quaternary"></path><path d="M38.5 28C33.348 28 30.5 36.277 30.5 42 30.5 48.066 33.414 50.881 36.5 51.704V74A2 2 0 0 0 40.5 74V51.704C43.586 50.881 46.5 48.066 46.5 42 46.5 36.277 43.652 28 38.5 28M38.5 48C35.02 48 34.5 44.24 34.5 42 34.5 36.527 37.148 32 38.5 32S42.5 36.527 42.5 42C42.5 44.24 41.98 48 38.5 48" fill="#000000" data-fill-palette-color="quaternary"></path></g></svg></g></svg></g></svg></g></svg></g><g></g></svg></g><defs></defs></svg><rect width="266.874352129431" height="247.2" fill="none" stroke="none" visibility="hidden"></rect></g></svg></g></svg>